<?xml version="1.0" standalone="no"?>
<svg xmlns:xlink="http://www.w3.org/1999/xlink" id="wave" style="transform:rotate(0deg); transition: 0.3s" viewBox="0 0 1440 190" version="1.1" xmlns="http://www.w3.org/2000/svg"><defs><linearGradient id="sw-gradient-0" x1="0" x2="0" y1="1" y2="0"><stop stop-color="rgba(72.09, 141.516, 130.54, 1)" offset="0%"/><stop stop-color="rgba(2.883, 121.025, 106.349, 1)" offset="100%"/></linearGradient></defs><path style="transform:translate(0, 0px); opacity:1" fill="url(#sw-gradient-0)" d="M0,38L40,38C80,38,160,38,240,50.7C320,63,400,89,480,107.7C560,127,640,139,720,142.5C800,146,880,139,960,114C1040,89,1120,44,1200,22.2C1280,0,1360,0,1440,25.3C1520,51,1600,101,1680,104.5C1760,108,1840,63,1920,50.7C2000,38,2080,57,2160,69.7C2240,82,2320,89,2400,85.5C2480,82,2560,70,2640,69.7C2720,70,2800,82,2880,101.3C2960,120,3040,146,3120,145.7C3200,146,3280,120,3360,120.3C3440,120,3520,146,3600,129.8C3680,114,3760,57,3840,47.5C3920,38,4000,76,4080,85.5C4160,95,4240,76,4320,66.5C4400,57,4480,57,4560,66.5C4640,76,4720,95,4800,101.3C4880,108,4960,101,5040,91.8C5120,82,5200,70,5280,79.2C5360,89,5440,120,5520,139.3C5600,158,5680,165,5720,167.8L5760,171L5760,190L5720,190C5680,190,5600,190,5520,190C5440,190,5360,190,5280,190C5200,190,5120,190,5040,190C4960,190,4880,190,4800,190C4720,190,4640,190,4560,190C4480,190,4400,190,4320,190C4240,190,4160,190,4080,190C4000,190,3920,190,3840,190C3760,190,3680,190,3600,190C3520,190,3440,190,3360,190C3280,190,3200,190,3120,190C3040,190,2960,190,2880,190C2800,190,2720,190,2640,190C2560,190,2480,190,2400,190C2320,190,2240,190,2160,190C2080,190,2000,190,1920,190C1840,190,1760,190,1680,190C1600,190,1520,190,1440,190C1360,190,1280,190,1200,190C1120,190,1040,190,960,190C880,190,800,190,720,190C640,190,560,190,480,190C400,190,320,190,240,190C160,190,80,190,40,190L0,190Z"/></svg>